<?xml version="1.0" standalone="no"?> <!DOCTYPE svg PUBLIC "-//W3C//DTD SVG 1.0//EN" "http://www.w3.org/TR/2001/REC-SVG-20010904/DTD/svg10.dtd" > <svg xmlns="http://www.w3.org/2000/svg" width="100%" height="100%">
<defs >
<font horiz-adv-x="714" ><font-face
    font-family="Blade Runner Movie Font"
    units-per-em="1000"
    panose-1="0 0 4 0 0 0 0 0 0 0"
    ascent="886"
    descent="-236"
    alphabetic="0" />
<missing-glyph horiz-adv-x="500" d="M63 0V800H438V0H63ZM125 63H375V738H125V63Z" />
<glyph unicode=" " glyph-name="space" horiz-adv-x="677" />
<glyph unicode="!" glyph-name="exclam" horiz-adv-x="518" d="M530 691L417 282H175L288 691H530ZM387 173L339 -1H97L145 173H387Z" />
<glyph unicode="&quot;" glyph-name="quotedbl" horiz-adv-x="505" d="M181 703H358L253 429H75L181 703ZM407 703H584L478 429H301L407 703Z" />
<glyph unicode="#" glyph-name="numbersign" horiz-adv-x="669" d="M143 -10L203 197L136 198L137 270H224L276 446H187L186 518L296 519L359 730L419 729L356 519L483 517L543 726H604L543 517L622 516L623 446L522 444L471 268L573 267V194L450 195L390 -13L329
-12L389 195L263 197L203 -11L143 -10ZM285 269L410 270L462 445L336 446L285 269Z" />
<glyph unicode="$" glyph-name="dollar" horiz-adv-x="816" d="M738 692L790 863L546 862L490 692Q498 692 481 692T438 692H404Q339 692 277 638Q219 588 198 522H861L907 692H738ZM498 -169H252L296 -2L50 -3L107 193L492 192Q544 200 544 242Q544 267 537 276T506
294L309 292Q244 292 211 335Q182 374 182 440Q182 454 183 470L639 469Q733 456 769 414Q776 406 804 372Q822 323 822 260Q822 182 794 133Q737 33 611 -2L541 -3L498 -169Z" />
<glyph unicode="%" glyph-name="percent" horiz-adv-x="1016" d="M686 168Q686 136 707 114T762 92Q793 92 815 114T838 168Q838 200 816 222T762 244Q729 244 708 222T686 168ZM581 168Q581 246 632 298T762 350Q838 350 891 297T944 168Q944 92 891 39T762 -14Q684
-14 633 38T581 168ZM297 -14L714 705H792L375 -14H297ZM253 523Q253 491 274 469T329 447Q360 447 382 469T405 523Q405 555 383 577T329 600Q296 600 275 578T253 523ZM148 524Q148 602 199 653T329 705Q405 705 458 653T511 524Q511 448 458 395T329 342Q251
342 200 394T148 524Z" />
<glyph unicode="&amp;" glyph-name="ampersand" horiz-adv-x="671" d="M238 315Q137 270 137 203Q137 160 162 133T231 106Q281 106 343 144L238 315ZM432 0L405 44Q314 -16 211 -16Q117 -16 57 42T-3 194Q-3 272 53 329Q94 371 179 411L156 452Q124 508 124 553Q124
630 180 676Q232 719 310 719Q390 719 442 678Q499 634 499 556Q499 438 354 370L437 236Q476 291 486 340H603Q579 220 502 134L585 0H432ZM295 466Q373 505 373 563Q373 617 313 617Q250 617 250 562Q250 535 287 479Q289 475 295 466Z" />
<glyph unicode="&apos;" glyph-name="quotesingle" horiz-adv-x="240" d="M194 703H371L265 429H88L194 703Z" />
<glyph unicode="(" glyph-name="parenleft" horiz-adv-x="327" d="M284 -128Q102 -128 59 6Q48 39 48 88Q48 152 65 218L128 462H245L184 208Q167 137 167 74Q167 25 177 -9Q202 -87 284 -128ZM259 520Q292 672 350 782Q275 782 211 686Q160 608 141 520H259Z" />
<glyph unicode=")" glyph-name="parenright" horiz-adv-x="304" d="M194 462H312Q278 318 245 188Q215 66 160 -4Q65 -125 -120 -128Q50 -118 92 23Q124 131 194 462ZM207 521H318Q322 555 322 584Q322 665 293 717Q257 780 183 783Q222 727 222 655Q222 629 216
588Q208 535 207 521Z" />
<glyph unicode="*" glyph-name="asterisk" horiz-adv-x="500" d="M271 434L186 313L102 371L196 489L60 527L92 626L222 579V719H320V579L450 625L483 526L346 489L439 372L355 311L271 434Z" />
<glyph unicode="+" glyph-name="plus" horiz-adv-x="548" d="M510 292L351 290L295 94L174 93L233 289H72L111 417H273L333 612H450L390 418L552 417L510 292Z" />
<glyph unicode="," glyph-name="comma" horiz-adv-x="276" d="M28 -164L44 -112Q123 -108 148 0H69L110 146H258L219 8Q195 -75 155 -115Q109 -160 28 -164Z" />
<glyph unicode="-" glyph-name="hyphen" horiz-adv-x="555" d="M491 244H43L78 371H527L491 244Z" />
<glyph unicode="." glyph-name="period" horiz-adv-x="300" d="M50 0L92 146H244L203 0H50Z" />
<glyph unicode="/" glyph-name="slash" horiz-adv-x="421" d="M100 -93L342 738H409L166 -93H100Z" />
<glyph unicode="0" glyph-name="zero" horiz-adv-x="645" d="M400 688L559 690Q690 691 690 554Q690 540 689 524H118Q138 586 190 635Q246 688 307 688H400ZM276 243L284 270L337 457H104L53 269Q39 218 39 171Q39 131 50 104Q74 43 146 18Q186 4 260 0L287 -1Q553
10 618 248Q623 268 639 327L672 456L444 457L387 245Q375 200 329 198Q276 196 276 232Q276 237 276 243Z" />
<glyph unicode="1" glyph-name="one" horiz-adv-x="444" d="M413 457L285 -1H43L171 457H413ZM430 524H121L228 690H474L430 524Z" />
<glyph unicode="2" glyph-name="two" horiz-adv-x="659" d="M701 524Q701 586 681 621Q643 690 586 690H341Q275 690 214 640T130 524H701ZM-13 -1L563 0L611 170H321Q363 205 462 243T603 313Q674 369 693 457H440Q441 455 441 452Q441 424 337 375Q183 303 120
250Q-3 148 -13 -1Z" />
<glyph unicode="3" glyph-name="three" horiz-adv-x="661" d="M707 524Q707 584 688 621Q651 690 591 690H346Q280 690 217 638Q158 589 135 524H707ZM341 279Q437 279 437 239Q437 216 412 195Q392 178 365 170Q342 163 320 163Q278 163 278 195Q278 204 282
215H58Q46 152 52 127Q79 -1 220 -1H405Q499 17 567 96T635 270Q635 326 606 361Q662 410 686 457H303L255 279H341Z" />
<glyph unicode="4" glyph-name="four" horiz-adv-x="690" d="M167 688L118 522H344L390 687L167 688ZM514 687L468 522H694L739 687H514ZM326 -1L392 229L43 227L103 457H326L311 398H438L451 457H678L554 -3L326 -1Z" />
<glyph unicode="5" glyph-name="five" horiz-adv-x="672" d="M670 524H73L179 690H720L670 524ZM336 279Q378 279 395 275Q431 266 431 237Q431 209 411 187T361 163Q340 161 328 161Q270 161 270 198Q270 205 271 212L47 213Q37 150 42 127Q68 -1 210 -1H407Q452
6 504 39Q550 68 571 95Q623 162 634 248Q635 260 635 271Q635 331 603 370Q565 420 515 438T391 457H119L68 281L336 279Z" />
<glyph unicode="6" glyph-name="six" horiz-adv-x="684" d="M621 192Q561 -3 378 -1L184 0Q48 1 48 144Q48 248 124 457H350L345 436H482Q643 436 643 310Q643 262 621 192ZM405 242Q407 252 407 260Q407 277 393 282Q387 283 354 285Q306 286 293 240L294 249L293
237Q290 226 290 218Q290 198 309 193Q318 191 344 192Q391 195 403 239L405 242ZM556 689Q687 689 687 553Q687 539 685 523H139Q159 586 209 635Q265 689 326 689H556Z" />
<glyph unicode="7" glyph-name="seven" horiz-adv-x="547" d="M576 524H56L161 690H621L576 524ZM560 457Q508 405 458 333Q411 265 391 224Q361 159 351 133Q327 70 312 -1H84Q111 118 164 224Q243 379 333 457H560Z" />
<glyph unicode="8" glyph-name="eight" horiz-adv-x="638" d="M685 524Q685 584 665 621Q629 690 570 690H324Q258 690 197 640T115 524H685ZM108 457Q106 437 109 424Q116 386 136 364Q26 271 26 156Q26 36 137 -1H382Q474 17 542 97T611 271Q611 325 582 363Q640
408 665 457H108ZM354 278Q413 278 413 239Q413 193 343 170Q321 163 298 163Q238 163 238 201Q238 221 258 240Q297 278 354 278Z" />
<glyph unicode="9" glyph-name="nine" horiz-adv-x="644" d="M559 690Q690 690 690 554Q690 540 688 524H118Q137 587 189 636Q245 690 306 690H559ZM387 242Q375 199 329 195Q275 191 275 229Q275 236 276 240L279 252H48Q38 200 38 166Q38 52 131 15Q167 1 230
0L327 -1Q399 4 432 16Q489 37 541 95Q622 187 680 457H110Q106 424 106 421Q106 286 266 288L400 290L387 242Z" />
<glyph unicode=":" glyph-name="colon" horiz-adv-x="379" d="M161 380L201 525H353L313 380H161ZM55 0L96 146H248L207 0H55Z" />
<glyph unicode=";" glyph-name="semicolon" horiz-adv-x="404" d="M190 380L230 525H382L342 380H190ZM43 -165L61 -113Q140 -109 168 0H88L131 144H279L239 7Q190 -158 43 -165Z" />
<glyph unicode="&lt;" glyph-name="less" horiz-adv-x="833" d="M704 583V476L268 298L704 120V13L129 250V347L704 583Z" />
<glyph unicode="=" glyph-name="equal" horiz-adv-x="607" d="M548 208H100L136 334H585L548 208ZM603 387H154L190 514H638L603 387Z" />
<glyph unicode="&gt;" glyph-name="greater" horiz-adv-x="833" d="M129 583L704 347V250L129 13V120L566 298L129 476V583Z" />
<glyph unicode="?" glyph-name="question" horiz-adv-x="658" d="M611 413Q594 400 561 387Q541 379 486 357Q475 353 447 333Q429 313 428 311Q420 300 417 283L221 284Q252 360 278 391Q314 435 382 459Q463 487 468 527Q471 556 444 573Q421 587 391 587Q305
587 277 488H87Q141 720 415 720Q515 720 587 684Q678 637 678 546Q678 494 657 461Q650 451 611 413ZM350 0H128L185 173H404L350 0Z" />
<glyph unicode="@" glyph-name="at" horiz-adv-x="1000" d="M570 133Q518 53 425 53Q267 53 267 219Q267 329 329 408Q396 494 503 494Q581 494 618 430L644 478H731L659 186Q656 172 656 166Q656 132 702 132Q741 132 781 169Q866 249 866 375Q866 503 765 577Q674
643 542 643Q404 643 306 577Q134 461 134 255Q134 96 242 8Q343 -74 505 -74Q667 -74 800 19L840 -38Q690 -151 507 -151Q316 -151 195 -57Q44 59 44 254Q44 421 145 544Q292 723 545 723Q715 723 826 638Q957 538 957 373Q957 208 833 108Q763 52 675 52Q572
52 570 133ZM594 342Q581 423 509 423Q443 423 404 349Q371 288 371 217Q371 125 448 125Q493 125 526 159Q556 190 568 236L594 342Z" />
<glyph unicode="A" glyph-name="A" horiz-adv-x="523" d="M460 524L423 690H172L24 524H460ZM248 283L319 -1H570L474 457H-13L-164 283H248Z" />
<glyph unicode="B" glyph-name="B" horiz-adv-x="1309" d="M321 -215Q327 -212 327 -206Q327 -201 318 -196T294 -181Q294 -132 298 -119Q309 -121 329 -120Q330 -116 333 -110Q336 -111 340 -110Q345 -107 349 -96T357 -82Q369 -66 382 -51T414 -30Q421 -28 435
-34T463 -47Q468 -53 472 -53Q480 -53 500 -25Q529 13 548 32Q594 77 612 95Q648 133 660 152Q673 167 687 184Q701 207 704 207Q706 207 715 198T738 181Q738 180 748 174T759 160Q745 152 731 145T703 121Q682 96 668 75Q667 70 659 59Q655 57 648 53Q637 47
630 33Q628 28 629 17T627 1Q611 -22 615 -42Q626 -48 646 -56Q651 -55 661 -56Q699 -90 759 -111Q762 -111 769 -110Q769 -108 770 -102T771 -94Q760 -89 748 -75Q747 -75 743 -70T738 -65Q728 -45 728 -22Q742 -20 755 -18Q767 -10 770 24Q795 49 839 83Q854
98 869 115Q898 144 898 169Q898 181 875 224Q856 246 780 329Q782 345 798 377Q817 413 819 422Q828 449 854 497Q858 502 861 502Q858 502 891 484Q937 450 986 450Q1015 450 1044 461Q1057 466 1068 464Q1091 461 1093 461Q1095 461 1102 466T1112 472Q1120
476 1132 483Q1136 511 1145 515Q1147 515 1187 514Q1204 517 1208 518Q1226 526 1230 542Q1236 544 1245 550Q1245 556 1247 565Q1250 566 1255 567Q1260 574 1260 584Q1276 591 1276 580Q1276 578 1276 574T1266 570Q1252 565 1251 567Q1260 566 1264 566Q1275
570 1276 575T1280 586Q1280 586 1293 587Q1326 589 1338 589L1340 604Q1343 608 1345 608H1350L1351 623H1346L1343 634Q1300 636 1238 634Q1227 633 1206 623Q1208 615 1208 599Q1204 600 1198 598Q1199 595 1198 589Q1178 589 1171 584Q1162 574 1153 565Q1151
563 1148 563Q1139 563 1129 576Q1122 576 1103 565Q1081 554 1064 550T1025 547Q1006 548 1006 549Q963 565 963 568Q938 595 927 611Q918 624 913 642Q909 657 902 664Q892 674 861 683Q858 684 857 690Q855 696 857 699Q862 704 870 704Q874 704 892 700Q904
698 905 702T911 715Q911 717 913 720Q913 720 913 723Q914 724 914 724T916 730T922 747Q922 748 925 747T931 747Q934 751 933 755Q930 764 926 783Q926 786 927 790T929 797Q929 801 928 809T926 821Q926 830 931 834T935 841Q928 857 913 866Q911 869 900 875Q888
878 865 886Q820 886 803 870T782 805Q781 790 771 790Q765 790 752 798T731 807Q711 807 699 758Q693 757 678 755T632 732Q600 708 542 679Q525 673 491 658Q473 649 458 630Q447 615 437 600Q423 586 401 565Q396 561 383 551Q376 550 361 545Q357 539 358 535Q360
527 360 527Q355 524 349 516Q342 505 342 503Q345 500 349 495Q349 493 352 491T355 484Q336 476 321 453T305 413Q305 405 309 401Q338 399 351 416T377 434Q377 425 383 413Q390 416 391 424Q393 438 394 452Q401 454 412 457Q415 459 422 463Q427 464 435 465Q450
487 464 509Q493 550 534 566Q545 568 565 572Q580 579 611 588Q612 588 617 590T624 592Q628 592 628 586Q628 576 616 548Q565 431 461 348Q437 328 299 242T120 74Q117 56 167 26T249 -5Q255 -5 258 -11T260 -22Q245 -33 222 -60Q219 -65 222 -92Q216 -99 208
-108Q213 -133 227 -154Q233 -155 242 -158Q259 -188 262 -193Q271 -208 282 -215Q306 -221 321 -215V-215Z" />
<glyph unicode="C" glyph-name="C" horiz-adv-x="720" d="M771 690L722 522H123Q142 586 193 635Q250 690 311 690H771ZM629 185L577 -1H260Q95 -1 50 104Q36 136 41 193Q42 204 45 233L104 456L352 457L280 236Q283 223 286 209Q295 191 323 185H629Z" />
<glyph unicode="D" glyph-name="D" horiz-adv-x="769" d="M788 522H95L202 690H605Q671 690 728 639T788 522ZM800 457Q800 281 732 181Q677 100 632 66Q542 -1 405 -1H8L139 457H385L302 178Q326 168 353 168Q403 168 457 199Q544 248 571 340Q585 387 587 457H800Z" />
<glyph unicode="E" glyph-name="E" horiz-adv-x="719" d="M775 690L731 522H79L187 690H775ZM710 457L662 275H337L311 181H633L585 1H-2L120 457H710Z" />
<glyph unicode="F" glyph-name="F" horiz-adv-x="680" d="M763 690L715 522H66L173 690H763ZM701 457L646 274H325L250 1H-13L114 457H701Z" />
<glyph unicode="G" glyph-name="G" horiz-adv-x="791" d="M817 690L776 523H123Q141 581 193 633Q250 690 312 690H817ZM758 432L705 236Q683 156 638 103Q551 1 385 1H265Q91 1 52 100Q36 140 36 173Q36 200 46 237L108 457H344L285 251Q280 234 280 226Q280
206 300 200H442Q472 208 482 251L484 263L336 261L442 432H758Z" />
<glyph unicode="H" glyph-name="H" horiz-adv-x="807" d="M810 690L766 522H522L569 690H810ZM389 690L344 522H104L148 690H389ZM746 457L622 0H380L452 276H277L200 1H-45L81 457H746Z" />
<glyph unicode="I" glyph-name="I" horiz-adv-x="363" d="M408 690L362 522H121L169 690H408ZM347 457L222 1H-21L106 457H347Z" />
<glyph unicode="J" glyph-name="J" horiz-adv-x="771" d="M812 690L766 522H534L581 690H812ZM749 457Q708 294 692 246Q660 148 616 102Q524 1 363 1H245Q75 1 34 102Q24 126 24 163Q24 206 37 266H268L252 208Q247 188 247 183Q247 163 267 157H409Q437 164
449 208L519 457H749Z" />
<glyph unicode="K" glyph-name="K" horiz-adv-x="848" d="M908 688L749 524H459L622 688H908ZM442 690L395 522H157L205 690H442ZM719 1H470L329 279L249 1H7L139 457H688L554 322L719 1Z" />
<glyph unicode="L" glyph-name="L" horiz-adv-x="1096" d="M1028 523L993 688H740L592 523H1028ZM818 272L885 -2H1136L1039 458H552L407 274L818 272ZM375 525H129L177 688L422 689L375 525ZM586 174H279L361 461H116L-6 0H449L586 174Z" />
<glyph unicode="M" glyph-name="M" horiz-adv-x="916" d="M984 690L937 522H145L192 690H426L565 557L735 690H984ZM921 457L792 1H543L657 411L488 274L348 411L232 1H1L128 457H921Z" />
<glyph unicode="N" glyph-name="N" horiz-adv-x="778" d="M822 690L772 523H117L164 690H391L539 549L575 690H822ZM759 457L637 1H386L463 278L317 411L201 0H-28L97 457H759Z" />
<glyph unicode="O" glyph-name="O" horiz-adv-x="731" d="M788 522H129Q149 590 197 637Q256 694 319 694H659Q788 694 788 557Q788 523 788 522ZM774 458L770 442Q754 390 715 252Q690 165 638 106Q544 0 386 0H267Q171 0 115 36Q46 79 46 169Q46 217 61 271L111
456H344L275 213Q271 196 271 187Q271 167 289 162H434Q461 169 474 213L546 457L774 458Z" />
<glyph unicode="P" glyph-name="P" horiz-adv-x="835" d="M896 523H127L230 690H795Q818 690 842 674T877 636Q896 601 896 523ZM878 457Q874 432 859 399Q800 276 577 276H347L270 1H41L166 456L878 457Z" />
<glyph unicode="Q" glyph-name="Q" horiz-adv-x="761" d="M780 524H120Q139 586 190 636Q247 690 308 690H650Q781 690 781 553Q781 539 780 524ZM763 457L718 273Q692 168 633 104Q631 102 620 94L699 -1H519L499 21Q438 0 379 0H262Q92 0 51 104Q41 130 41 171Q41
219 54 270L104 457H339L269 210Q264 193 264 186Q264 166 284 160H379L296 255H479L533 457H763Z" />
<glyph unicode="R" glyph-name="R" horiz-adv-x="4670" d="M1833 0Q1838 2 1838 7Q1838 10 1831 14T1812 25Q1812 61 1815 70Q1824 69 1839 69Q1840 72 1843 76Q1843 77 1845 77T1848 76Q1852 84 1861 96T1880 119T1906 135Q1909 136 1944 123Q1947 118 1951 118Q1957
118 1973 138Q1995 166 2010 180Q2046 213 2097 267Q2106 278 2117 290Q2128 307 2131 307Q2133 307 2140 301T2157 288Q2157 287 2165 283T2173 272Q2160 268 2130 245Q2114 226 2103 211Q2102 207 2096 199Q2093 198 2087 195T2074 182Q2071 178 2072 169T2071
157Q2058 141 2062 126Q2070 121 2086 116Q2090 117 2097 116Q2127 91 2173 76Q2176 76 2181 76Q2181 78 2182 82T2183 88Q2174 92 2165 102Q2164 102 2161 105T2157 109Q2149 124 2149 140Q2160 142 2170 145T2182 174Q2201 192 2235 217Q2247 227 2259 240Q2282
261 2282 279Q2282 288 2263 319Q2248 335 2190 396Q2191 407 2204 431T2220 462Q2227 482 2247 517Q2250 520 2253 520Q2250 520 2276 507Q2312 483 2349 483Q2371 483 2394 491Q2404 494 2412 493Q2430 490 2432 491Q2434 491 2439 494T2446 499Q2453 501 2462
507Q2465 527 2472 530Q2474 530 2505 529Q2518 531 2521 532Q2535 538 2538 550Q2543 551 2550 555Q2550 560 2552 566Q2554 567 2558 568Q2562 573 2562 580Q2568 582 2572 581Q2576 579 2573 574Q2573 570 2566 570Q2555 567 2555 568Q2562 567 2565 567Q2573
570 2574 573T2577 582Q2578 582 2587 582Q2613 584 2622 584L2624 594Q2626 597 2627 597V597H2631L2632 609H2628L2626 617Q2593 618 2544 617Q2536 615 2520 609Q2521 603 2521 591Q2518 591 2513 590Q2514 588 2513 584Q2498 583 2493 580Q2486 573 2478 566Q2471
560 2460 574Q2447 567 2410 555Q2387 555 2364 554Q2331 566 2331 569Q2309 593 2304 600Q2297 615 2290 631Q2284 643 2253 652Q2250 652 2249 657Q2248 662 2250 665T2260 668Q2263 668 2277 665Q2286 663 2287 666T2291 676Q2291 677 2293 679Q2293 679 2293
681Q2293 682 2293 682T2295 686T2300 699Q2300 699 2303 699T2307 699Q2310 701 2309 704Q2306 711 2303 725Q2303 727 2304 730T2305 734Q2305 737 2304 743T2303 752Q2303 758 2307 761T2310 767Q2305 778 2293 785Q2291 787 2283 792Q2274 794 2256 800Q2221
800 2208 788T2191 741Q2190 722 2172 734Q2159 742 2152 742Q2136 742 2127 707Q2122 706 2110 705T2074 687T2005 649Q1991 645 1965 634Q1952 627 1940 613Q1931 603 1923 592Q1910 579 1882 556Q1876 555 1864 552Q1863 551 1863 539Q1860 537 1855 530T1850
521Q1852 519 1855 515Q1855 514 1857 513T1860 507Q1845 501 1833 485T1821 456Q1821 450 1824 447Q1846 446 1856 458T1877 471Q1877 465 1882 456Q1887 458 1888 464Q1889 474 1890 484Q1896 486 1904 488Q1907 490 1912 491T1921 494T1935 511Q1960 553 1999
567Q2007 568 2023 571Q2034 576 2058 583Q2059 583 2063 584T2069 586Q2072 586 2072 582Q2072 574 2062 554Q2023 469 1942 409Q1925 396 1817 333T1677 210Q1675 197 1714 175T1777 153Q1790 153 1786 140Q1775 133 1757 113Q1754 109 1757 90Q1752 85 1745
78Q1749 60 1761 45Q1765 44 1772 41Q1781 25 1803 0Q1821 -4 1833 0V0V0V0ZM2807 398H2432L2483 477H2759Q2785 477 2799 452Q2807 436 2807 398V398V398V398V398V398V398ZM2802 366Q2798 336 2768 310Q2756 300 2745 295Q2756 276 2756 258Q2756 245 2753 227Q2751
218 2728 145V145V145H2619L2658 278H2544L2502 145H2389L2454 366H2802ZM3171 476L3149 398H3038L3061 477L3171 476ZM2970 477L2947 398H2838L2861 477H2970ZM3141 366L3080 146L2902 145Q2819 145 2799 195Q2793 209 2793 222Q2793 230 2795 237V237V237L2831
366L2939 367L2904 247Q2902 239 2902 235Q2902 225 2912 222V222V222H2990L3030 366H3141ZM3543 478L3519 398H3201L3224 478H3335L3406 410L3424 478H3543ZM3513 366L3454 146H3332L3370 280L3298 344L3241 145H3131L3191 366H3513ZM3929 478L3905 398H3586L3609
478H3720L3792 410L3809 478H3929ZM3899 366L3839 146H3717L3754 280L3684 344L3627 145H3516L3577 366H3899ZM4266 477L4244 398H3928L3980 477H4266ZM4235 366L4211 277H4053L4040 233H4197L4173 145H3888L3948 366H4235ZM4647 398H4271L4322 477H4599Q4623 477
4639 452Q4647 434 4647 398V398V398V398V398V398V398ZM4642 366Q4637 335 4608 310Q4595 299 4585 295Q4596 276 4596 258Q4596 255 4592 227Q4590 213 4567 145V145V145H4459L4497 278H4382L4342 145H4228L4293 366H4642ZM386 398H182V479L323 480Q386 480 386
411Q386 401 386 398V398V398V398V398V398V398ZM182 145V234H210Q229 234 229 252Q229 265 219 268V268V268H182V366H382Q382 335 344 319Q356 301 359 294Q365 283 365 263Q365 258 365 253Q362 214 334 185T265 145V145V145H182ZM182 398V398V398V479H107L37
398H182ZM182 366V366H65L0 146L182 145V234H134L143 268H182V366ZM599 147L621 175V231H599V147ZM642 231V203L621 175V231H642ZM642 203V231H664L642 203ZM1672 477L1651 397H1334L1386 477H1672ZM1641 365L1617 276H1459L1447 232H1604L1580 145H1294L1354 365H1641ZM561
400H441L465 478L584 479L561 400ZM599 231H515L554 370H435L376 146H597L599 147V231ZM879 399L861 478H738L667 399H879ZM1298 398H961L1013 479H1209Q1241 479 1268 454T1298 398V398V398V398V398V398ZM578 278H777L809 145H1112Q1178 145 1222 178Q1304 239
1304 366V366V366H1200Q1200 335 1193 310Q1183 277 1152 252T1086 227Q1073 227 1062 232V232V232L1102 366H982L926 170L883 368H648L642 361L621 334L578 278Z" />
<glyph unicode="S" glyph-name="S" horiz-adv-x="794" d="M833 690L788 524H140Q161 588 217 637Q278 690 341 690H833ZM664 64Q624 23 540 0L-6 1L47 191L425 189Q474 195 474 237Q474 262 468 271T437 288H244Q181 288 152 319T123 422Q123 457 123 457H565Q646
447 674 425Q678 422 728 366Q747 318 747 257Q747 146 664 64Z" />
<glyph unicode="T" glyph-name="T" horiz-adv-x="732" d="M804 690L758 524H92L198 690H804ZM545 457L424 1H195L319 457H545Z" />
<glyph unicode="U" glyph-name="U" horiz-adv-x="739" d="M808 687L761 522H533L579 687H808ZM392 687L346 522H121L168 686L392 687ZM745 457L619 1L253 0Q81 0 40 103Q29 131 29 159Q29 175 33 189L107 457H329L258 209Q253 192 253 184Q253 164 273 158H433L517
457H745Z" />
<glyph unicode="V" glyph-name="V" horiz-adv-x="921" d="M1060 688L932 524H609L728 690L1060 688ZM391 524H134L100 690H351L391 524ZM875 458L492 1H241L146 458H405L442 305L551 457L875 458Z" />
<glyph unicode="W" glyph-name="W" horiz-adv-x="906" d="M973 689L932 523H695L743 689H973ZM434 690L388 523H142L189 690H434ZM912 457L785 0L553 1L410 130L239 1L0 0L127 457H372L321 289L491 425L628 289L678 457H912Z" />
<glyph unicode="X" glyph-name="X" horiz-adv-x="739" d="M878 689L717 523L233 524L193 687H444L463 609L537 688L878 689ZM655 457L534 324L602 0L342 1L323 85L248 0H-91L260 388L246 455L655 457Z" />
<glyph unicode="Y" glyph-name="Y" horiz-adv-x="655" d="M763 692L612 523H123L87 689H338L357 612L431 693L763 692ZM549 457L427 326L338 1H76L169 328L140 455L549 457Z" />
<glyph unicode="Z" glyph-name="Z" horiz-adv-x="698" d="M804 691L761 524H97L205 690L804 691ZM749 458L376 185H669L618 1H16L70 187L462 457L749 458Z" />
<glyph unicode="[" glyph-name="bracketleft" horiz-adv-x="421" d="M122 -130H219L196 -207H31L213 457H283L122 -130ZM331 646L428 645L452 718L279 716L231 524H299L331 646Z" />
<glyph unicode="\" glyph-name="backslash" horiz-adv-x="470" d="M276 -12L106 728L194 729L364 -11L276 -12Z" />
<glyph unicode="]" glyph-name="bracketright" horiz-adv-x="376" d="M114 -130H19L1 -206H163L338 456H274L114 -130ZM396 709H239L224 637H318L288 523L351 524L396 709Z" />
<glyph unicode="^" glyph-name="asciicircum" horiz-adv-x="1000" d="M438 713H561L796 439H681L500 620L318 439H203L438 713Z" />
<glyph unicode="_" glyph-name="underscore" horiz-adv-x="500" d="M0 -136H500V-236H0V-136Z" />
<glyph unicode="`" glyph-name="grave" horiz-adv-x="240" d="M194 703H371L265 429H88L194 703Z" />
<glyph unicode="a" glyph-name="a" horiz-adv-x="768" d="M689 522H257L401 690H653L689 522ZM801 1H550L482 273H340L139 1H-154L204 458H703L801 1Z" />
<glyph unicode="b" glyph-name="b" horiz-adv-x="787" d="M800 522H82L226 693H671Q802 693 802 552Q802 538 800 522ZM794 456Q794 392 716 362Q745 313 747 310Q758 285 758 246Q758 242 758 226Q752 127 678 66Q621 17 554 0L8 1L141 456H794ZM479 220Q479
250 458 254H302L283 184H438Q452 184 465 195T479 220Z" />
<glyph unicode="c" glyph-name="c" horiz-adv-x="720" d="M771 690L722 522H123Q142 586 193 635Q250 690 311 690H771ZM629 185L577 -1H260Q95 -1 50 104Q36 136 41 193Q42 204 45 233L104 456L352 457L280 236Q283 223 286 209Q295 191 323 185H629Z" />
<glyph unicode="d" glyph-name="d" horiz-adv-x="769" d="M788 522H95L202 690H605Q671 690 728 639T788 522ZM800 457Q800 281 732 181Q677 100 632 66Q542 -1 405 -1H8L139 457H385L302 178Q326 168 353 168Q403 168 457 199Q544 248 571 340Q585 387 587 457H800Z" />
<glyph unicode="e" glyph-name="e" horiz-adv-x="719" d="M775 690L731 522H79L187 690H775ZM710 457L662 275H337L311 181H633L585 1H-2L120 457H710Z" />
<glyph unicode="f" glyph-name="f" horiz-adv-x="680" d="M763 690L715 522H66L173 690H763ZM701 457L646 274H325L250 1H-13L114 457H701Z" />
<glyph unicode="g" glyph-name="g" horiz-adv-x="775" d="M817 690L776 523H123Q141 581 193 633Q250 690 312 690H817ZM758 432L705 236Q683 156 638 103Q551 1 385 1H265Q91 1 52 100Q36 140 36 173Q36 200 46 237L108 457H344L285 251Q280 234 280 226Q280
206 300 200H442Q472 208 482 251L484 263L336 261L442 432H758Z" />
<glyph unicode="h" glyph-name="h" horiz-adv-x="753" d="M810 690L766 522H522L569 690H810ZM389 690L344 522H104L148 690H389ZM746 457L622 0H380L452 276H277L200 1H-45L81 457H746Z" />
<glyph unicode="i" glyph-name="i" horiz-adv-x="347" d="M408 690L362 522H121L169 690H408ZM347 457L222 1H-21L106 457H347Z" />
<glyph unicode="j" glyph-name="j" horiz-adv-x="757" d="M812 690L766 522H534L581 690H812ZM749 457Q708 294 692 246Q660 148 616 102Q524 1 363 1H245Q75 1 34 102Q24 126 24 163Q24 206 37 266H268L252 208Q247 188 247 183Q247 163 267 157H409Q437 164
449 208L519 457H749Z" />
<glyph unicode="k" glyph-name="k" horiz-adv-x="848" d="M908 688L749 524H459L622 688H908ZM442 690L395 522H157L205 690H442ZM719 1H470L329 279L249 1H7L139 457H688L554 322L719 1Z" />
<glyph unicode="l" glyph-name="l" horiz-adv-x="601" d="M432 690L382 523H140L186 688L432 690ZM620 171L480 1H-6L123 457H366L286 172L620 171Z" />
<glyph unicode="m" glyph-name="m" horiz-adv-x="916" d="M984 690L937 522H145L192 690H426L565 557L735 690H984ZM921 457L792 1H543L657 411L488 274L348 411L232 1H1L128 457H921Z" />
<glyph unicode="n" glyph-name="n" horiz-adv-x="740" d="M822 690L772 523H117L164 690H391L539 549L575 690H822ZM759 457L637 1H386L463 278L317 411L201 0H-28L97 457H759Z" />
<glyph unicode="o" glyph-name="o" horiz-adv-x="731" d="M788 522H129Q149 590 197 637Q256 694 319 694H659Q788 694 788 557Q788 523 788 522ZM774 458L770 442Q754 390 715 252Q690 165 638 106Q544 0 386 0H267Q171 0 115 36Q46 79 46 169Q46 217 61 271L111
456H344L275 213Q271 196 271 187Q271 167 289 162H434Q461 169 474 213L546 457L774 458Z" />
<glyph unicode="p" glyph-name="p" horiz-adv-x="835" d="M896 523H127L230 690H795Q818 690 842 674T877 636Q896 601 896 523ZM878 457Q874 432 859 399Q800 276 577 276H347L270 1H41L166 456L878 457Z" />
<glyph unicode="q" glyph-name="q" horiz-adv-x="761" d="M780 524H120Q139 586 190 636Q247 690 308 690H650Q781 690 781 553Q781 539 780 524ZM763 457L718 273Q692 168 633 104Q631 102 620 94L699 -1H519L499 21Q438 0 379 0H262Q92 0 51 104Q41 130 41 171Q41
219 54 270L104 457H339L269 210Q264 193 264 186Q264 166 284 160H379L296 255H479L533 457H763Z" />
<glyph unicode="r" glyph-name="r" horiz-adv-x="821" d="M866 524H91L197 690H766Q789 690 812 674T848 636Q866 603 866 524ZM854 457Q846 396 784 342Q756 317 737 311Q760 275 760 235Q760 212 753 170Q749 144 701 1H477L557 276H321L236 1H3L137 457H854Z" />
<glyph unicode="s" glyph-name="s" horiz-adv-x="775" d="M833 690L788 524H140Q161 588 217 637Q278 690 341 690H833ZM664 64Q624 23 540 0L-6 1L47 191L425 189Q474 195 474 237Q474 262 468 271T437 288H244Q181 288 152 319T123 422Q123 457 123 457H565Q646
447 674 425Q678 422 728 366Q747 318 747 257Q747 146 664 64Z" />
<glyph unicode="t" glyph-name="t" horiz-adv-x="731" d="M804 690L758 524H92L198 690H804ZM545 457L424 1H195L319 457H545Z" />
<glyph unicode="u" glyph-name="u" horiz-adv-x="742" d="M808 687L761 522H533L579 687H808ZM392 687L346 522H121L168 686L392 687ZM745 457L619 1L253 0Q81 0 40 103Q29 131 29 159Q29 175 33 189L107 457H329L258 209Q253 192 253 184Q253 164 273 158H433L517
457H745Z" />
<glyph unicode="v" glyph-name="v" horiz-adv-x="921" d="M1060 688L932 524H609L728 690L1060 688ZM391 524H134L100 690H351L391 524ZM875 458L492 1H241L146 458H405L442 305L551 457L875 458Z" />
<glyph unicode="w" glyph-name="w" horiz-adv-x="906" d="M973 689L932 523H695L743 689H973ZM434 690L388 523H142L189 690H434ZM912 457L785 0L553 1L410 130L239 1L0 0L127 457H372L321 289L491 425L628 289L678 457H912Z" />
<glyph unicode="x" glyph-name="x" horiz-adv-x="739" d="M878 689L717 523L233 524L193 687H444L463 609L537 688L878 689ZM655 457L534 324L602 0L342 1L323 85L248 0H-91L260 388L246 455L655 457Z" />
<glyph unicode="y" glyph-name="y" horiz-adv-x="633" d="M763 692L612 523H123L87 689H338L357 612L431 693L763 692ZM549 457L427 326L338 1H76L169 328L140 455L549 457Z" />
<glyph unicode="z" glyph-name="z" horiz-adv-x="748" d="M804 691L761 524H97L205 690L804 691ZM749 458L376 185H669L618 1H16L70 187L462 457L749 458Z" />
<glyph unicode="{" glyph-name="braceleft" horiz-adv-x="347" d="M231 384Q196 301 122 266Q169 236 170 167Q170 125 149 43Q123 -63 121 -83Q119 -112 132 -121T174 -132L187 -133L167 -209H145Q79 -208 60 -166Q44 -133 56 -66Q57 -57 80 36Q97 106 100 126Q102
141 102 155Q102 224 45 229L65 308Q124 307 157 372Q182 420 193 458H256Q244 415 231 384ZM272 524L280 555Q294 610 307 627Q328 655 375 653L387 652L407 729H384Q343 730 320 722Q263 701 230 612Q224 594 206 523H272V524Z" />
<glyph unicode="|" glyph-name="bar" horiz-adv-x="500" d="M200 764H301V-236H200V764Z" />
<glyph unicode="}" glyph-name="braceright" horiz-adv-x="241" d="M131 354Q134 291 182 259Q112 227 77 139Q62 104 31 -33Q18 -88 6 -105Q-14 -134 -61 -134H-74L-91 -210H-69Q-30 -210 -4 -200Q52 -177 83 -87Q91 -63 112 34Q130 114 149 151Q183 217 240
219L258 299Q199 300 199 373Q199 395 213 459H145Q129 386 131 354ZM159 524Q174 590 175 605Q176 633 161 643Q150 651 120 651H107L125 728H147Q245 728 245 634Q245 614 240 590Q237 573 226 524H159Z" />
<glyph unicode="~" glyph-name="asciitilde" horiz-adv-x="833" d="M747 392V284Q648 217 562 217Q516 217 472 232Q463 235 438 244Q332 281 275 281Q194 281 87 204V312Q191 382 276 382Q333 382 418 354Q419 353 420 353L447 344Q525 317 564 317Q644 317 747 392Z" />
</font>
</defs>
</svg>
